name C:\Users\u0150099\Documents\master_thesis\3dpredictsim\Results\debug\Fal_s1_mtjc2_sc_cspx10_oy2_TrackAnkleQSubtQ_ATx70_MTc2_MTPm_k1_d01_MTJm_nl_MG_exp5_table_d01_PF_Natali2010_x3_ls146_ig21.mot
datacolumns 128
datarows 4
range 1.67257487 1.70602637
endheader
time	pelvis_tilt	pelvis_list	pelvis_rotation	pelvis_tx	pelvis_ty	pelvis_tz	hip_flexion_l	hip_adduction_l	hip_rotation_l	hip_flexion_r	hip_adduction_r	hip_rotation_r	knee_angle_l	knee_angle_r	ankle_angle_l	ankle_angle_r	subtalar_angle_l	subtalar_angle_r	mtj_angle_l	mtj_angle_r	mtp_angle_l	mtp_angle_r	lumbar_extension	lumbar_bending	lumbar_rotation	arm_flex_l	arm_add_l	arm_rot_l	arm_flex_r	arm_add_r	arm_rot_r	elbow_flex_l	elbow_flex_r	pro_sup_l	pro_sup_r	glut_med1_l/activation	glut_med2_l/activation	glut_med3_l/activation	glut_min1_l/activation	glut_min2_l/activation	glut_min3_l/activation	semimem_l/activation	semiten_l/activation	bifemlh_l/activation	bifemsh_l/activation	sar_l/activation	add_long_l/activation	add_brev_l/activation	add_mag1_l/activation	add_mag2_l/activation	add_mag3_l/activation	tfl_l/activation	pect_l/activation	grac_l/activation	glut_max1_l/activation	glut_max2_l/activation	glut_max3_l/activation	iliacus_l/activation	psoas_l/activation	quad_fem_l/activation	gem_l/activation	peri_l/activation	rect_fem_l/activation	vas_med_l/activation	vas_int_l/activation	vas_lat_l/activation	med_gas_l/activation	lat_gas_l/activation	soleus_l/activation	tib_post_l/activation	flex_dig_l/activation	flex_hal_l/activation	tib_ant_l/activation	per_brev_l/activation	per_long_l/activation	per_tert_l/activation	ext_dig_l/activation	ext_hal_l/activation	ercspn_l/activation	intobl_l/activation	extobl_l/activation	glut_med1_r/activation	glut_med2_r/activation	glut_med3_r/activation	glut_min1_r/activation	glut_min2_r/activation	glut_min3_r/activation	semimem_r/activation	semiten_r/activation	bifemlh_r/activation	bifemsh_r/activation	sar_r/activation	add_long_r/activation	add_brev_r/activation	add_mag1_r/activation	add_mag2_r/activation	add_mag3_r/activation	tfl_r/activation	pect_r/activation	grac_r/activation	glut_max1_r/activation	glut_max2_r/activation	glut_max3_r/activation	iliacus_r/activation	psoas_r/activation	quad_fem_r/activation	gem_r/activation	peri_r/activation	rect_fem_r/activation	vas_med_r/activation	vas_int_r/activation	vas_lat_r/activation	med_gas_r/activation	lat_gas_r/activation	soleus_r/activation	tib_post_r/activation	flex_dig_r/activation	flex_hal_r/activation	tib_ant_r/activation	per_brev_r/activation	per_long_r/activation	per_tert_r/activation	ext_dig_r/activation	ext_hal_r/activation	ercspn_r/activation	intobl_r/activation	extobl_r/activation	
          1.67257487	         -2.91337521	          1.20020539	         -4.46254727	          2.22452458	          0.90546722	          0.00424677	         27.71583613	          2.27806834	         -2.26504936	        -18.93164104	          1.10243521	          8.32532723	         -5.99160056	         -7.86624366	          1.77799276	          5.54786660	         -0.08014631	          5.13783389	          1.76238329	         -1.37144600	         -4.03136642	         16.71788063	         -3.08538995	          0.09425328	          1.92665193	         -7.17015944	        -13.47532621	          4.38881937	          3.77853243	        -14.10670950	         19.38771522	         27.03541258	         36.34447200	         86.51662706	         86.51662706	          0.06334222	          0.05000018	          0.05929208	          0.05000006	          0.05000009	          0.05000031	          0.34728265	          0.07031100	          0.07031124	          0.05000015	          0.05000019	          0.12083522	          0.16618837	          0.15758295	          0.16015540	          0.12879231	          0.05000045	          0.05000152	          0.09316444	          0.05974144	          0.10253135	          0.10542104	          0.05000002	          0.05000004	          0.18765557	          0.05000020	          0.05000009	          0.05000005	          0.05928886	          0.05928996	          0.05028712	          0.08488820	          0.07341730	          0.05000002	          0.05000004	          0.09654153	          0.05000083	          0.23339762	          0.05929203	          0.07746824	          0.26351112	          0.60250803	          0.24668786	          0.05207373	          0.11146446	          0.12335558	          0.34684505	          0.09338212	          0.05929212	          0.48278198	          0.25504395	          0.11335063	          0.05000051	          0.05000006	          0.05000005	          0.08662567	          0.11724763	          0.05000001	          0.05000002	          0.05000004	          0.05000018	          0.05000014	          0.71454579	          0.05000011	          0.05000010	          0.05000157	          0.05000063	          0.05000027	          0.37219451	          0.77513386	          0.05000003	          0.05000018	          0.05000032	          0.35721047	          0.05000015	          0.05000017	          0.05000011	          0.45730929	          0.52420934	          0.32665886	          0.47080832	          0.41410289	          0.53496519	          0.05000000	          0.05127886	          0.29888673	          0.05000002	          0.05000001	          0.11734151	          0.05000000	          0.05000000	          0.05000001	
          1.68372537	         -2.92096259	          1.34426597	         -4.73008274	          2.24214850	          0.90490108	          0.00400275	         27.21405045	          2.69811268	         -2.18327423	        -19.02205994	          0.73707248	          8.25649147	         -5.89216191	         -9.38379725	          1.37154526	          4.52841249	         -0.26932394	          5.43829996	          2.08593350	         -2.64659182	         -4.87194556	         20.03979642	         -2.92962405	         -0.15140759	          2.03279036	         -7.94190878	        -13.45338227	          4.10626916	          3.38794032	        -14.05664563	         19.33373538	         26.54728560	         37.62636323	         86.51662706	         86.51662706	          0.05929206	          0.05929206	          0.05000006	          0.05929209	          0.05929208	          0.05530183	          0.31467837	          0.05929210	          0.05929228	          0.05929206	          0.05000017	          0.13418472	          0.18781156	          0.13288721	          0.17244471	          0.14608639	          0.05000003	          0.06038538	          0.07856413	          0.05037901	          0.11280095	          0.15587448	          0.05000062	          0.05000013	          0.28962177	          0.19211908	          0.09346637	          0.05000002	          0.05000005	          0.05000005	          0.05000004	          0.08337766	          0.07812856	          0.05000006	          0.05929194	          0.08141188	          0.07031221	          0.23801856	          0.05000007	          0.11166130	          0.32004371	          0.63636772	          0.34388859	          0.05000001	          0.09399608	          0.10402366	          0.29248853	          0.07874755	          0.05000004	          0.40712183	          0.21507421	          0.09558666	          0.05000061	          0.05000006	          0.05000004	          0.07304995	          0.09887296	          0.05788794	          0.05000017	          0.05000013	          0.05000036	          0.05000027	          0.64973697	          0.05005529	          0.05000014	          0.05000026	          0.05000017	          0.05000018	          0.31386528	          0.73622435	          0.05000001	          0.05000006	          0.05000002	          0.34812367	          0.07566677	          0.07829553	          0.06581040	          0.38564111	          0.44205681	          0.27546584	          0.42592819	          0.45112896	          0.47023530	          0.05000000	          0.05929216	          0.28636095	          0.05000001	          0.05000000	          0.09895209	          0.05000000	          0.05000012	          0.08003909	
          1.69487587	         -2.92467491	          1.50481277	         -4.97398415	          2.26009128	          0.90446041	          0.00372573	         26.73063628	          3.09186077	         -2.08530876	        -19.02417382	          0.35233291	          8.15320819	         -6.51651604	        -10.98998993	          0.51032278	          3.22709651	         -0.48610481	          5.71917805	          2.35622774	         -4.04800297	         -5.51838717	         23.67153762	         -2.75973084	         -0.41772166	          2.13212848	         -8.71554670	        -13.45262053	          4.04402745	          2.90609950	        -14.00212761	         19.19783396	         26.02651056	         38.93034363	         86.51662706	         86.51662706	          0.05000000	          0.05000001	          0.12025654	          0.05000001	          0.05000001	          0.05000002	          0.26536291	          0.05000002	          0.05000017	          0.05000000	          0.05000012	          0.11315577	          0.25027939	          0.26864328	          0.17589652	          0.17819529	          0.05000071	          0.07031198	          0.06625183	          0.10114127	          0.14726886	          0.15196182	          0.05000002	          0.05000011	          0.46221889	          0.16201076	          0.07881861	          0.07031067	          0.14810556	          0.14648818	          0.11219804	          0.07031101	          0.07031101	          0.06670909	          0.05000000	          0.06865329	          0.05929323	          0.31999986	          0.09297187	          0.09416209	          0.60206547	          0.67596642	          0.45726769	          0.05000000	          0.07926529	          0.08772138	          0.24665059	          0.06640647	          0.05929203	          0.34331891	          0.18136842	          0.08060661	          0.05000075	          0.05000015	          0.05000050	          0.06160179	          0.08337791	          0.14786903	          0.10183691	          0.05929219	          0.05929214	          0.05929222	          0.63125062	          0.05000068	          0.05000057	          0.05004370	          0.05929137	          0.05929200	          0.26467724	          0.65956455	          0.05929205	          0.05929202	          0.05000021	          0.29356678	          0.11901209	          0.12302134	          0.09608722	          0.32520456	          0.37277896	          0.23229564	          0.35917798	          0.38042986	          0.39654146	          0.05000000	          0.05000009	          0.26665496	          0.05000000	          0.05000000	          0.08344461	          0.05000004	          0.07031097	          0.07031103	
          1.70602637	         -2.92579122	          1.70529665	         -5.19678328	          2.27824157	          0.90419450	          0.00345769	         26.20447645	          3.42004022	         -1.92456539	        -18.91063050	         -0.06251577	          8.00660811	         -7.47219903	        -12.69732790	         -0.54073379	          1.57106233	         -0.70462878	          5.92861629	          2.62106185	         -5.53398432	         -5.87738267	         27.59432506	         -2.58118725	         -0.73062056	          2.22050912	         -9.46710521	        -13.47703180	          4.17813093	          2.35800831	        -13.93502768	         19.01623201	         25.44919341	         40.23744318	         86.51662706	         86.51662706	          0.33531303	          0.35607124	          0.41743352	          0.36305205	          0.25961609	          0.22891156	          0.22377602	          0.16191849	          0.11126863	          0.10912102	          0.05929231	          0.09542234	          0.21105635	          0.22654231	          0.14833056	          0.19965123	          0.05000010	          0.05929315	          0.19732192	          0.25441787	          0.21743330	          0.12814685	          0.05929209	          0.05929207	          0.38978131	          0.13662096	          0.12739959	          0.05929178	          0.12489489	          0.12353098	          0.09461470	          0.05929208	          0.05929208	          0.05625464	          0.05580718	          0.05789415	          0.05000098	          0.37176556	          0.07840160	          0.07940532	          0.50771154	          0.81413343	          0.68868722	          0.06495759	          0.09708079	          0.07397394	          0.21658593	          0.05599945	          0.05000000	          0.35542725	          0.15294491	          0.06797418	          0.05000063	          0.05000004	          0.05000002	          0.05929207	          0.07031123	          0.12625146	          0.08587736	          0.05000013	          0.05000016	          0.05000016	          0.68057884	          0.07031065	          0.05000011	          0.05000014	          0.05000007	          0.05000006	          0.23207208	          0.67604428	          0.05000000	          0.05000003	          0.05000000	          0.24755985	          0.10036087	          0.10374181	          0.08102872	          0.27423945	          0.31435813	          0.19589094	          0.30288866	          0.32081002	          0.33439666	          0.05818799	          0.11222077	          0.23871118	          0.05000003	          0.05000002	          0.07036742	          0.08675502	          0.05929204	          0.05929209	
